<svg xmlns="http://www.w3.org/2000/svg" version="1.1" xmlns:xlink="http://www.w3.org/1999/xlink" xmlns:svgjs="http://svgjs.dev/svgjs" width="2000" height="540" viewBox="0 0 2000 540"><g transform="matrix(1,0,0,1,-1.2121212121212466,-0.6421917470771064)"><svg viewBox="0 0 396 107" data-background-color="#ffffff" preserveAspectRatio="xMidYMid meet" height="540" width="2000" xmlns="http://www.w3.org/2000/svg" xmlns:xlink="http://www.w3.org/1999/xlink"><g id="tight-bounds" transform="matrix(1,0,0,1,0.2400000000000091,0.12724910543934698)"><svg viewBox="0 0 395.52 106.74550178912132" height="106.74550178912132" width="395.52"><g><svg viewBox="0 0 395.52 106.74550178912132" height="106.74550178912132" width="395.52"><g><svg viewBox="0 0 485.58962931822725 131.05407727843746" height="106.74550178912132" width="395.52"><g transform="matrix(1,0,0,1,144.1782485182273,0)"><svg viewBox="0 0 341.41138079999996 131.05407727843746" height="131.05407727843746" width="341.41138079999996"><g><path d="M0 131.054v-131.054h341.411v131.054z" fill="#ffffff" stroke="transparent" stroke-width="0" rx="0%" data-fill-palette-color="tertiary"></path><path d="M4.509 126.545v-122.036h332.393v122.036z" fill="#000000" stroke="transparent" stroke-width="0" rx="0%" data-fill-palette-color="quaternary"></path><path d="M13.527 117.527v-104h314.357v104z" fill="#ffffff" stroke="transparent" stroke-width="0" data-fill-palette-color="tertiary"></path></g><g transform="matrix(1,0,0,1,27.054309599999996,27.054309599999996)" id="textblocktransform"><svg viewBox="0 0 287.30276159999994 76.94545807843747" height="76.94545807843747" width="287.30276159999994" id="textblock"><g><svg viewBox="0 0 287.30276159999994 43.7803651135507" height="43.7803651135507" width="287.30276159999994"><g transform="matrix(1,0,0,1,0,0)"><svg width="287.30276159999994" viewBox="-0.9500000000000002 -43.95 306.12 47.50000000000001" height="43.7803651135507" data-palette-color="#ffffff"><path d="M13.25 0.55L13.25 0.55Q9.6 0.55 7.15-0.88 4.7-2.3 3.45-5.05 2.2-7.8 2.05-11.8L2.05-11.8 8.4-13.05Q8.5-10.7 8.97-8.9 9.45-7.1 10.43-6.13 11.4-5.15 13-5.15L13-5.15Q14.8-5.15 15.55-6.23 16.3-7.3 16.3-8.95L16.3-8.95Q16.3-11.6 15.1-13.3 13.9-15 11.9-16.7L11.9-16.7 6.8-21.2Q4.65-23.05 3.38-25.33 2.1-27.6 2.1-30.95L2.1-30.95Q2.1-35.75 4.9-38.35 7.7-40.95 12.55-40.95L12.55-40.95Q15.4-40.95 17.3-40.08 19.2-39.2 20.33-37.65 21.45-36.1 22-34.13 22.55-32.15 22.7-29.95L22.7-29.95 16.4-28.85Q16.3-30.75 15.98-32.25 15.65-33.75 14.83-34.6 14-35.45 12.4-35.45L12.4-35.45Q10.75-35.45 9.88-34.38 9-33.3 9-31.7L9-31.7Q9-29.65 9.85-28.33 10.7-27 12.3-25.6L12.3-25.6 17.35-21.15Q19.85-19.05 21.63-16.23 23.4-13.4 23.4-9.4L23.4-9.4Q23.4-6.5 22.13-4.25 20.85-2 18.57-0.73 16.3 0.55 13.25 0.55ZM33.65 0L27.35 0 27.35-40.5 32.5-40.5 42.35-17.4 42.35-40.5 48.45-40.5 48.45 0 43.55 0 33.65-24.2 33.65 0ZM71.7 0L54.59 0 54.59-40.5 71.59-40.5 71.59-35.3 62-35.3 62-23.65 69.55-23.65 69.55-18.5 62-18.5 62-5.1 71.7-5.1 71.7 0ZM80.89 0L73.94 0 82.04-40.5 89.94-40.5 98.04 0 91.19 0 89.59-9.35 82.54-9.35 80.89 0ZM86.04-31.05L83.29-14.05 88.79-14.05 86.04-31.05ZM109.29 0L101.89 0 101.89-40.5 109.29-40.5 109.29-22.7 117.29-40.5 124.34-40.5 116.59-22.4 125.14 0 117.79 0 110.99-18.45 109.29-15.35 109.29 0ZM145.14 0L128.04 0 128.04-40.5 145.04-40.5 145.04-35.3 135.44-35.3 135.44-23.65 142.99-23.65 142.99-18.5 135.44-18.5 135.44-5.1 145.14-5.1 145.14 0ZM156.84 0L149.44 0 149.44-40.5 159.14-40.5Q163.24-40.5 166.06-39.53 168.89-38.55 170.36-36.2 171.84-33.85 171.84-29.8L171.84-29.8Q171.84-27.35 171.39-25.4 170.94-23.45 169.86-22.08 168.79-20.7 166.89-19.95L166.89-19.95 172.54 0 165.14 0 160.24-18.55 156.84-18.55 156.84 0ZM156.84-35.45L156.84-23.2 159.14-23.2Q161.29-23.2 162.56-23.83 163.84-24.45 164.39-25.83 164.94-27.2 164.94-29.35L164.94-29.35Q164.94-32.4 163.81-33.93 162.69-35.45 159.54-35.45L159.54-35.45 156.84-35.45ZM184.83 0L177.48 0 177.48-40.5 184.83-40.5 184.83-23.55 193.08-23.55 193.08-40.5 200.48-40.5 200.48 0 193.08 0 193.08-18.3 184.83-18.3 184.83 0ZM223.78 0L206.68 0 206.68-40.5 223.68-40.5 223.68-35.3 214.08-35.3 214.08-23.65 221.63-23.65 221.63-18.5 214.08-18.5 214.08-5.1 223.78-5.1 223.78 0ZM232.98 0L226.03 0 234.13-40.5 242.03-40.5 250.13 0 243.28 0 241.68-9.35 234.63-9.35 232.98 0ZM238.13-31.05L235.38-14.05 240.88-14.05 238.13-31.05ZM263.83 0L253.98 0 253.98-40.5 263.53-40.5Q268.48-40.5 271.25-39.15 274.03-37.8 275.2-35 276.38-32.2 276.38-27.9L276.38-27.9 276.38-13.1Q276.38-8.7 275.2-5.78 274.03-2.85 271.3-1.43 268.58 0 263.83 0L263.83 0ZM261.38-35.25L261.38-5.15 263.63-5.15Q266.18-5.15 267.28-6.05 268.38-6.95 268.63-8.68 268.88-10.4 268.88-12.9L268.88-12.9 268.88-28.4Q268.88-30.85 268.53-32.35 268.18-33.85 267.08-34.55 265.98-35.25 263.53-35.25L263.53-35.25 261.38-35.25ZM292.02 0.55L292.02 0.55Q288.37 0.55 285.92-0.88 283.47-2.3 282.22-5.05 280.97-7.8 280.82-11.8L280.82-11.8 287.17-13.05Q287.27-10.7 287.75-8.9 288.22-7.1 289.2-6.13 290.17-5.15 291.77-5.15L291.77-5.15Q293.57-5.15 294.32-6.23 295.07-7.3 295.07-8.95L295.07-8.95Q295.07-11.6 293.87-13.3 292.67-15 290.67-16.7L290.67-16.7 285.57-21.2Q283.42-23.05 282.15-25.33 280.87-27.6 280.87-30.95L280.87-30.95Q280.87-35.75 283.67-38.35 286.47-40.95 291.32-40.95L291.32-40.95Q294.17-40.95 296.07-40.08 297.97-39.2 299.1-37.65 300.22-36.1 300.77-34.13 301.32-32.15 301.47-29.95L301.47-29.95 295.17-28.85Q295.07-30.75 294.75-32.25 294.42-33.75 293.6-34.6 292.77-35.45 291.17-35.45L291.17-35.45Q289.52-35.45 288.65-34.38 287.77-33.3 287.77-31.7L287.77-31.7Q287.77-29.65 288.62-28.33 289.47-27 291.07-25.6L291.07-25.6 296.12-21.15Q298.62-19.05 300.4-16.23 302.17-13.4 302.17-9.4L302.17-9.4Q302.17-6.5 300.9-4.25 299.62-2 297.35-0.73 295.07 0.55 292.02 0.55Z" opacity="1" transform="matrix(1,0,0,1,0,0)" fill="#000000" class="undefined-text-0" data-fill-palette-color="quaternary" id="text-0"></path></svg></g></svg></g><g transform="matrix(1,0,0,1,2.5,52.7984683135507)"><svg viewBox="0 0 282.30276159999994 24.146989764886772" height="24.146989764886772" width="282.30276159999994"><g transform="matrix(1,0,0,1,0,0)"><svg width="282.30276159999994" viewBox="-2.65 -38.1 482.45 41.95" height="24.146989764886772" data-palette-color="#ffffff"><path d="M15.35 0.2L11.9 0.2 3.25-29.25Q2.9-30.35 2.45-30.9 2-31.45 0.95-31.8L0.95-31.8 0.35-32 0.35-33.05 13.25-33.05 13.25-32 12.2-31.65Q11.05-31.3 10.73-30.65 10.4-30 10.7-28.85L10.7-28.85 16.15-8.35 22.1-26.1 21.2-29Q20.85-30.05 20.5-30.63 20.15-31.2 19.35-31.55L19.35-31.55 18.25-32 18.25-33.05 30.5-33.05 30.5-32 29.1-31.55Q28.1-31.2 27.95-30.55 27.8-29.9 28.15-28.8L28.15-28.8 34.45-8.05 40.25-28.5Q40.6-29.65 40.45-30.5 40.3-31.35 39.15-31.7L39.15-31.7 38.15-32 38.15-33.05 45.55-33.05 45.55-32 44.3-31.6Q43.3-31.25 42.88-30.58 42.45-29.9 42.15-28.8L42.15-28.8 33.95 0.2 30.5 0.2 23.1-23.1 15.35 0.2ZM86.63-24.75L86.63-24.75Q89.78-24.75 92.03-23.45 94.28-22.15 95.5-19.88 96.73-17.6 96.73-14.65L96.73-14.65Q96.73-14 96.68-13.43 96.63-12.85 96.48-12.35L96.48-12.35 81.43-12.35Q81.48-7.2 83.35-4.95 85.23-2.7 88.83-2.7L88.83-2.7Q91.33-2.7 92.88-3.53 94.43-4.35 95.73-5.85L95.73-5.85 96.53-5.1Q95.03-2.35 92.45-0.83 89.88 0.7 86.33 0.7L86.33 0.7Q82.78 0.7 80.08-0.8 77.38-2.3 75.85-5.13 74.33-7.95 74.33-11.9L74.33-11.9Q74.33-16 76.1-18.85 77.88-21.7 80.7-23.23 83.53-24.75 86.63-24.75ZM86.38-23.3L86.38-23.3Q84.93-23.3 83.85-22.48 82.78-21.65 82.15-19.58 81.53-17.5 81.43-13.75L81.43-13.75 90.38-13.75Q90.93-18.8 89.98-21.05 89.03-23.3 86.38-23.3ZM172.98 0.7L172.98 0.7Q170.58 0.7 168.66 0.18 166.73-0.35 164.98-1.3L164.98-1.3 164.98-7.2 166.33-7.2 167.83-4.35Q168.78-2.5 170.01-1.6 171.23-0.7 173.13-0.7L173.13-0.7Q175.48-0.7 176.88-1.73 178.28-2.75 178.28-4.5L178.28-4.5Q178.28-6.1 177.23-7.1 176.18-8.1 173.48-8.95L173.48-8.95 171.28-9.65Q168.33-10.55 166.61-12.38 164.88-14.2 164.88-16.95L164.88-16.95Q164.88-19.1 166.03-20.88 167.18-22.65 169.38-23.7 171.58-24.75 174.73-24.75L174.73-24.75Q176.78-24.75 178.51-24.28 180.23-23.8 181.88-22.95L181.88-22.95 181.58-17.6 180.28-17.6 178.73-20.45Q177.93-22.05 177.11-22.68 176.28-23.3 174.58-23.3L174.58-23.3Q172.78-23.3 171.41-22.38 170.03-21.45 170.03-19.8L170.03-19.8Q170.03-18.25 171.18-17.28 172.33-16.3 174.88-15.45L174.88-15.45 177.03-14.8Q180.68-13.65 182.23-11.75 183.78-9.85 183.78-7.2L183.78-7.2Q183.78-3.65 180.96-1.48 178.13 0.7 172.98 0.7ZM225.61-24.75L225.61-24.75Q228.76-24.75 231.01-23.45 233.26-22.15 234.49-19.88 235.71-17.6 235.71-14.65L235.71-14.65Q235.71-14 235.66-13.43 235.61-12.85 235.46-12.35L235.46-12.35 220.41-12.35Q220.46-7.2 222.34-4.95 224.21-2.7 227.81-2.7L227.81-2.7Q230.31-2.7 231.86-3.53 233.41-4.35 234.71-5.85L234.71-5.85 235.51-5.1Q234.01-2.35 231.44-0.83 228.86 0.7 225.31 0.7L225.31 0.7Q221.76 0.7 219.06-0.8 216.36-2.3 214.84-5.13 213.31-7.95 213.31-11.9L213.31-11.9Q213.31-16 215.09-18.85 216.86-21.7 219.69-23.23 222.51-24.75 225.61-24.75ZM225.36-23.3L225.36-23.3Q223.91-23.3 222.84-22.48 221.76-21.65 221.14-19.58 220.51-17.5 220.41-13.75L220.41-13.75 229.36-13.75Q229.91-18.8 228.96-21.05 228.01-23.3 225.36-23.3ZM277.04 0L265.39 0 265.39-0.95 266.14-1.15Q267.79-1.7 267.79-3.65L267.79-3.65Q267.79-5.35 267.81-7.08 267.84-8.8 267.84-10.5L267.84-10.5 267.84-29.5Q267.84-30.55 267.49-31.08 267.14-31.6 266.14-31.85L266.14-31.85 265.39-32.05 265.39-33 274.14-35.1 274.79-34.65 274.59-27.6 274.59-3.65Q274.64-2.65 275.01-2.02 275.39-1.4 276.34-1.15L276.34-1.15 277.04-0.95 277.04 0ZM318.07 0L306.42 0 306.42-0.95 307.17-1.15Q308.82-1.7 308.82-3.65L308.82-3.65Q308.82-5.35 308.84-7.08 308.87-8.8 308.87-10.5L308.87-10.5 308.87-29.5Q308.87-30.55 308.52-31.08 308.17-31.6 307.17-31.85L307.17-31.85 306.42-32.05 306.42-33 315.17-35.1 315.82-34.65 315.62-27.6 315.62-3.65Q315.67-2.65 316.04-2.02 316.42-1.4 317.37-1.15L317.37-1.15 318.07-0.95 318.07 0ZM401.07 0.85L401.07 0.85Q398.02 0.85 395.22-0.25 392.42-1.35 390.2-3.53 387.97-5.7 386.67-8.95 385.37-12.2 385.37-16.55L385.37-16.55Q385.37-20.8 386.67-24.05 387.97-27.3 390.2-29.5 392.42-31.7 395.25-32.83 398.07-33.95 401.07-33.95L401.07-33.95Q404.07-33.95 406.9-32.85 409.72-31.75 411.92-29.58 414.12-27.4 415.42-24.15 416.72-20.9 416.72-16.55L416.72-16.55Q416.72-12.3 415.42-9.05 414.12-5.8 411.92-3.6 409.72-1.4 406.92-0.28 404.12 0.85 401.07 0.85ZM401.07-0.65L401.07-0.65Q403.92-0.65 405.67-2.13 407.42-3.6 408.22-7.1 409.02-10.6 409.02-16.55L409.02-16.55Q409.02-22.5 408.22-25.98 407.42-29.45 405.67-30.93 403.92-32.4 401.07-32.4L401.07-32.4Q398.27-32.4 396.5-30.93 394.72-29.45 393.92-25.98 393.12-22.5 393.12-16.55L393.12-16.55Q393.12-10.6 393.92-7.1 394.72-3.6 396.5-2.13 398.27-0.65 401.07-0.65ZM463 0.85L463 0.85Q457.9 0.85 454.05-1.3 450.2-3.45 448.02-7.38 445.85-11.3 445.85-16.6L445.85-16.6Q445.85-21.8 447.97-25.7 450.1-29.6 454.15-31.78 458.2-33.95 463.85-33.95L463.85-33.95Q466.55-33.95 468.87-33.35 471.2-32.75 473.25-31.6L473.25-31.6 473.45-24.45 472.1-24.45 469.6-29.5Q469-30.7 468.45-31.25 467.9-31.8 467-32.05L467-32.05Q466.35-32.3 465.75-32.38 465.15-32.45 464.2-32.45L464.2-32.45Q461.05-32.45 458.65-30.83 456.25-29.2 454.92-25.7 453.6-22.2 453.6-16.6L453.6-16.6Q453.6-8.15 456.37-4.38 459.15-0.6 463.8-0.6L463.8-0.6Q464.9-0.6 465.7-0.9L465.7-0.9Q466.65-1.05 467-1.68 467.35-2.3 467.35-3.25L467.35-3.25Q467.35-5.3 467.32-7.73 467.3-10.15 467.3-12.15L467.3-12.15Q467.3-14.1 465.25-14.55L465.25-14.55 463-15.05 463-16.1 476.8-16.1 476.8-15.05 476.2-14.9Q475.25-14.6 474.75-14.03 474.25-13.45 474.25-12.45L474.25-12.45Q474.25-10.45 474.22-8.38 474.2-6.3 474.2-4.2L474.2-4.2 474.2-2.05Q471.6-0.65 468.92 0.1 466.25 0.85 463 0.85Z" opacity="1" transform="matrix(1,0,0,1,0,0)" fill="#000000" class="undefined-text-1" data-fill-palette-color="quaternary" id="text-1"></path></svg></g></svg></g></svg></g></svg></g><g transform="matrix(1,0,0,1,0,12.357727107018434)"><svg viewBox="0 0 135.16014531822728 106.3386230644006" height="106.3386230644006" width="135.16014531822728"><g><svg xmlns="http://www.w3.org/2000/svg" xmlns:xlink="http://www.w3.org/1999/xlink" version="1.1" x="0" y="0" viewBox="12.5 70.4176464496084 486.9900043032036 383.14435355039166" style="enable-background:new 0 0 512 512;" xml:space="preserve" height="106.3386230644006" width="135.16014531822728" class="icon-icon-0" data-fill-palette-color="accent" id="icon-0"><g fill="#51c600" data-fill-palette-color="accent"><path d="M458.99 284.38l-52.64-5.66c-6.87-0.74-13.63-2.37-20.09-4.84l-41.98-16.09c-1.81-0.69-3.83 0.21-4.52 2.02-0.69 1.81 0.21 3.83 2.02 4.52l41.98 16.09c7.02 2.69 14.37 4.46 21.84 5.27l40.34 4.34-75.36 14.61c-38.14 7.39-76.92 8.01-115.27 1.82l-87.64-14.13c-1.91-0.31-3.7 0.99-4.01 2.9-0.31 1.91 0.99 3.71 2.9 4.01l87.64 14.13c17.83 2.87 35.74 4.31 53.65 4.31 21.43 0 42.85-2.06 64.06-6.17l94.59-18.33c4.21 1.42 8.07 3.55 11.46 6.23l-0.12 0.04c-13.31 4.74-26.89 8.65-40.68 11.73l-57.01 12.71c-15.33 3.42-28.75 12.63-37.44 25.71l-4.41 6.63-65.25-17.42c-10.19-2.72-20.64-3.22-31.04-1.49l-22.46 3.74c-2.56 0.43-5.12 0.68-7.69 0.81L84.41 254.32c-8.18-5.61-19.16-4.74-26.35 2.09L19.5 293.05v-2.06c0-2.81 0.38-5.6 1.12-8.31l25.04-91.49 2.16 12.87c2.19 13.05 6.97 25.29 14.21 36.36 0.67 1.03 1.79 1.58 2.93 1.58 0.66 0 1.32-0.18 1.91-0.57 1.62-1.06 2.07-3.23 1.01-4.84-3.82-5.84-6.87-12.03-9.19-18.51l8.37 4.82c4.59 2.64 9.71 3.95 14.82 3.95 6.1 0 12.18-1.87 17.33-5.55l79.14-56.74 18.36-8.96c2.43-1.19 5.39-0.73 7.34 1.14l3.33 3.18-8.92 10.51c-1.99-0.43-4.17-0.37-6.42 0.46-4.03 1.49-7.01 5.14-7.53 9.41-0.87 7.07 4.62 13.08 11.51 13.08 6.25 0 11.34-4.94 11.59-11.13 0.03-0.65-0.29-0.78-0.71-0.28l-2.99 3.52c-0.69 0.82-1.68 1.24-2.67 1.24-0.8 0-1.6-0.27-2.26-0.83-1.47-1.25-1.65-3.46-0.4-4.93l13.8-16.26 15.4 14.73-85.08 97.96c-1.27 1.46-1.11 3.67 0.35 4.94 0.66 0.58 1.48 0.86 2.29 0.86 0.98 0 1.95-0.41 2.64-1.21l53.87-62.02 39.56 28.54c11.97 8.64 26.04 13.07 40.27 13.07 8.59 0 17.25-1.62 25.54-4.91l9.49-3.77c1.56 0.83 3.12 1.65 4.7 2.44 1.73 0.87 3.83 0.17 4.7-1.56 0.87-1.73 0.17-3.83-1.56-4.7-10.6-5.32-20.71-11.49-30.26-18.44l2.77-3.24c1.26-1.47 1.08-3.68-0.39-4.93-1.47-1.26-3.68-1.08-4.93 0.39l-3.06 3.57c-5.08-3.95-9.99-8.13-14.71-12.53l3.72-4.35c1.26-1.47 1.08-3.68-0.39-4.93-1.47-1.26-3.68-1.08-4.93 0.39l-3.48 4.07-13.6-13.01 4.07-4.76c1.26-1.47 1.08-3.68-0.39-4.93-1.47-1.26-3.68-1.08-4.93 0.39l-3.82 4.47-33.31-31.86 4.53-5.34c0.72-1.41 0.42-3.19-0.84-4.26-1.47-1.25-3.68-1.07-4.93 0.4l-3.75 4.42-2.85-2.72-20.91-26.64c-1.87-2.39-4.68-3.85-7.71-4-3.03-0.16-5.98 1-8.09 3.18l-14.31 14.76c-1.43 1.47-2.39 3.31-2.77 5.33l-2.39 12.44c-0.36 1.9 0.88 3.73 2.78 4.1 0.22 0.04 0.45 0.06 0.67 0.06 1.64 0 3.11-1.16 3.43-2.84l2.39-12.44c0.13-0.67 0.45-1.28 0.92-1.77l14.31-14.76c0.71-0.74 1.66-1.12 2.7-1.06 1.02 0.05 1.94 0.53 2.57 1.33l14.61 18.62c-1.24 0.21-2.46 0.59-3.62 1.16l-58.04 28.32c-15.02 7.33-32.8 5.85-46.4-3.87l-22.75-16.25c-3.59-2.56-8.22-3.21-12.37-1.73-4.16 1.48-7.33 4.9-8.5 9.16L13.87 280.82c-0.91 3.31-1.37 6.73-1.37 10.16v72.69c0 6.99 4.15 13.3 10.56 16.07l22.29 9.62c2.2 0.95 4.54 1.43 6.94 1.43h319.43c11.47 0 22.94-1.38 34.09-4.11l71.67-17.53c12.96-3.17 22.01-14.7 22.01-28.04v-11.64C499.5 306.25 482.08 286.86 458.99 284.38zM245.66 196.54l-9 10.53c-1.26 1.47-1.08 3.68 0.39 4.93 0.66 0.56 1.47 0.84 2.27 0.84 0.99 0 1.97-0.42 2.66-1.23l8.75-10.23 13.6 13.01-7.23 8.45c-1.26 1.47-1.08 3.68 0.39 4.93 0.66 0.56 1.47 0.84 2.27 0.84 0.99 0 1.97-0.42 2.66-1.23l6.99-8.18c4.73 4.39 9.64 8.57 14.71 12.53l-5.62 6.57c-1.26 1.47-1.08 3.68 0.39 4.93 0.66 0.56 1.47 0.84 2.27 0.84 0.99 0 1.97-0.42 2.66-1.23l5.89-6.89c6.15 4.49 12.52 8.66 19.1 12.51l-4.19 1.67c-19.77 7.85-41.88 5.11-59.13-7.33l-39.05-28.17 26.38-30.38L245.66 196.54zM52.33 166.79c0.57-2.08 2.06-3.69 4.09-4.41 2.03-0.72 4.2-0.42 5.96 0.83l22.75 16.25c15.69 11.21 36.21 12.92 53.54 4.46l2.07-1.01-45.6 32.69c-7.22 5.18-16.87 5.66-24.57 1.23l-14.73-8.48c-0.42-1.8-0.8-3.61-1.11-5.45l-4.66-27.8L52.33 166.79zM72.83 383.8c-7.54-10.23-19.13-16.84-31.93-17.99l-0.31-0.03c-4.06-0.36-8.06-1.28-11.87-2.73l-9.22-3.5v-31.76l4.93-2.41c13.38-6.55 28.77-8.42 43.32-5.26l125.3 27.16c9.13 1.98 18.43 2.2 27.65 0.67l22.46-3.74c9.42-1.57 18.87-1.12 28.09 1.35l68.19 18.21-18.76 20.05H72.83zM492.5 335.15l-7.35 3.65c-38.81 19.29-79.88 33.65-122.25 42.77l-10.39 2.23h-22.26l16.46-17.59c10.09-10.78 23.68-17.98 38.26-20.26l50.43-7.9c12.95-2.03 25.55-5.82 37.46-11.27l18.04-8.25c1.03 3.48 1.59 7.16 1.59 10.96V335.15z" fill="#ffffff" data-fill-palette-color="accent"></path><path d="M165.8 349.61H88.56c-5.93 0-10.74 4.81-10.74 10.74v0c0 5.93 4.81 10.74 10.74 10.74h77.24c5.93 0 10.74-4.81 10.74-10.74v0C176.54 354.42 171.73 349.61 165.8 349.61z" fill="#ffffff" data-fill-palette-color="accent"></path><path d="M120.13 133.39c1.49 1.24 3.69 1.03 4.93-0.45 0.15-0.18 0.27-0.36 0.38-0.56 0.79-1.44 0.48-3.28-0.83-4.37l-20.02-16.66c-1.49-1.24-3.69-1.03-4.93 0.45-1.23 1.48-1.03 3.69 0.45 4.93L120.13 133.39z" fill="#ffffff" data-fill-palette-color="accent"></path><path d="M195.3 103.43c1.37 0.05 2.59-0.69 3.21-1.81 0.25-0.46 0.41-0.99 0.43-1.55l1.01-26.02c0.08-1.93-1.43-3.56-3.36-3.63-1.93-0.07-3.56 1.43-3.63 3.36l-1.01 26.02C191.86 101.73 193.37 103.35 195.3 103.43z" fill="#ffffff" data-fill-palette-color="accent"></path><path d="M444.62 412.61c-1.11-1.58-3.29-1.97-4.88-0.85-1.58 1.11-1.96 3.29-0.85 4.88l14.96 21.31c0.83 1.18 2.25 1.69 3.57 1.42 0.46-0.09 0.9-0.28 1.31-0.56 1.58-1.11 1.96-3.29 0.85-4.88L444.62 412.61z" fill="#ffffff" data-fill-palette-color="accent"></path><path d="M364.23 421.87c-1.84-0.58-3.81 0.45-4.39 2.29l-7.78 24.85c-0.58 1.84 0.45 3.81 2.29 4.39 0.59 0.18 1.18 0.21 1.75 0.09 1.21-0.25 2.25-1.13 2.64-2.38l7.78-24.85C367.1 424.41 366.08 422.45 364.23 421.87z" fill="#ffffff" data-fill-palette-color="accent"></path></g></svg></g></svg></g></svg></g></svg></g><defs></defs></svg><rect width="395.52" height="106.74550178912132" fill="none" stroke="none" visibility="hidden"></rect></g></svg></g></svg>